<?xml version="1.0" standalone="no"?>
<!DOCTYPE svg PUBLIC "-//W3C//DTD SVG 20010904//EN"
 "http://www.w3.org/TR/2001/REC-SVG-20010904/DTD/svg10.dtd">
<svg version="1.0" xmlns="http://www.w3.org/2000/svg"
 width="512.000000pt" height="512.000000pt" viewBox="0 0 512.000000 512.000000"
 preserveAspectRatio="xMidYMid meet">
<metadata>
Created by potrace 1.11, written by Peter Selinger 2001-2013
</metadata>
<g transform="translate(0.000000,512.000000) scale(0.100000,-0.100000)"
fill="#000000" stroke="none">
<path d="M3275 4101 c-69 -12 -131 -29 -188 -53 -46 -20 -48 -22 -41 -52 84
-393 342 -728 688 -896 85 -42 241 -100 266 -100 12 0 68 130 86 200 23 86 23
252 0 345 -61 254 -264 464 -515 534 -84 23 -223 34 -296 22z"/>
<path d="M2807 3838 c-55 -68 -96 -144 -130 -242 -28 -83 -31 -102 -31 -221
-1 -109 3 -142 22 -205 94 -303 353 -509 662 -527 164 -9 337 38 459 127 53
38 54 39 30 49 -288 118 -426 207 -600 389 -158 164 -266 343 -339 559 l-38
114 -35 -43z"/>
<path d="M1904 2488 c-324 -375 -600 -695 -612 -710 -26 -30 -38 -91 -28 -133
4 -14 25 -46 48 -71 l41 -44 -94 -102 c-92 -99 -94 -103 -94 -151 0 -43 4 -52
37 -83 29 -26 46 -34 77 -34 45 0 67 15 173 118 l77 75 39 -35 c44 -40 86 -53
133 -43 20 5 238 181 659 535 777 653 810 681 810 689 0 3 -41 19 -90 35 -252
80 -486 317 -556 563 -9 32 -20 62 -24 66 -4 5 -272 -299 -596 -675z"/>
</g>
</svg>
