<svg height="64" width="64" xmlns="http://www.w3.org/2000/svg"><circle cx="32" cy="32" fill="#F5CF87" r="32"/><path d="M31.271 26.715L16.198 44.198a1.726 1.726 0 0 0 0 2.441l.771.771-2.029 2.029a1.5 1.5 0 0 0 2.12 2.122l2.03-2.029.563.563a1.726 1.726 0 0 0 2.441 0l17.678-14.86a11.092 11.092 0 0 1-5.501-3.007 11.1 11.1 0 0 1-3-5.513z" fill="#231F20" opacity=".2"/><circle cx="42.164" cy="24.836" fill="#231F20" opacity=".2" r="9.164"/><circle cx="42.164" cy="21.836" fill="#E0995E" r="9.164"/><g fill="#4F5D73"><path d="M31.271 24.215L16.198 41.698a1.726 1.726 0 0 0 0 2.441l.771.771-2.029 2.029a1.5 1.5 0 0 0 2.12 2.122l2.03-2.029.563.563a1.726 1.726 0 0 0 2.441 0l17.678-14.86a11.092 11.092 0 0 1-5.501-3.007 11.1 11.1 0 0 1-3-5.513zM48.045 28.867a18.832 18.832 0 0 1-7.551-4.618 18.778 18.778 0 0 1-4.942-8.756c-3.439 3.592-3.399 9.288.135 12.821A9.139 9.139 0 0 0 42.172 31a9.141 9.141 0 0 0 5.873-2.133z"/><path d="M48.657 15.343a9.165 9.165 0 0 0-10.633-1.691 16.021 16.021 0 0 0 12.033 12.844c2.085-3.519 1.625-8.128-1.4-11.153z"/></g></svg>
